#N canvas 1124 52 627 648 10;
#X obj 102 533 bob~;
#X obj 233 218 knob 20 20000 3;
#X text 286 253 Freq;
#X text 386 253 Reson;
#X obj 132 375 line~;
#X obj 335 312 line~;
#X obj 18 71 inlet~;
#X obj 118 435 +~;
#X obj 76 70 inlet~ freq_mod;
#X obj 81 193 *~;
#X obj 232 142 knob 20 20000 3;
#X text 279 170 Freq mod amt;
#X obj 99 580 outlet~;
#X obj 115 476 clip~ 20 20000;
#X obj 333 218 knob 0 10 2;
#X connect 0 0 12 0;
#X connect 1 0 4 0;
#X connect 4 0 7 1;
#X connect 5 0 0 2;
#X connect 6 0 0 0;
#X connect 7 0 13 0;
#X connect 8 0 9 0;
#X connect 9 0 7 0;
#X connect 10 0 9 1;
#X connect 13 0 0 1;
#X connect 14 0 5 0;
#X coords 0 -1 1 1 198 173 1 228 123;
