#N canvas 756 276 621 354 10;
#X obj 93 296 vline~;
#X obj 105 68 knob 10 2000 2;
#X obj 202 70 knob 10 2000 2;
#X text 108 43 attack;
#X text 202 45 decay;
#X text 301 47 sustain_lev;
#X obj 20 39 inlet;
#X obj 97 360 outlet~;
#X obj 398 73 knob 0 5 1;
#X text 409 47 pow;
#X obj 15 143 bang;
#X obj 99 329 pow~;
#X obj 97 249 pack 0 0 0 0;
#X msg 96 275 1 \$2 \, \$3 \$4 \$2;
#X obj 301 71 knob -1 1 1;
#X connect 0 0 11 0;
#X connect 1 0 12 1;
#X connect 2 0 12 3;
#X connect 6 0 10 0;
#X connect 8 0 11 1;
#X connect 10 0 12 0;
#X connect 11 0 7 0;
#X connect 12 0 13 0;
#X connect 13 0 0 0;
#X connect 14 0 12 2;
#X coords 0 -1 1 1 406 147 1 83 25;
