#N canvas 477 223 494 451 10;
#X text 74 77 Freq;
#X obj 49 122 hradio 15 1 0 2 empty empty empty 0 -8 0 10 -262144 -1
-1 1;
#X text 24 121 Low;
#X text 81 121 High;
#X obj 0 2 preset_node main;
#X obj 121 50 vradio 15 1 0 3 empty empty empty 0 -8 0 10 -262144 -1
-1 2;
#X text 142 50 Sine;
#X text 142 66 Square;
#X text 142 82 Saw;
#X obj 276 246 phasor~;
#X obj 186 188 osc~;
#X obj 220 216 *~ 10000;
#X obj 189 317 mux~ . . .;
#X obj 195 0 preset_node main;
#X obj 25 209 *;
#X msg 53 176 70;
#X msg 84 178 10000;
#X obj 52 153 sel 0 1;
#X obj 190 390 outlet~;
#X obj 207 248 clip~ -1 1;
#X obj 22 44 knob 0 1 5;
#X connect 1 0 17 0;
#X connect 4 0 1 0;
#X connect 5 0 12 0;
#X connect 9 0 12 2;
#X connect 10 0 11 0;
#X connect 10 0 12 0;
#X connect 11 0 19 0;
#X connect 12 0 18 0;
#X connect 13 0 5 0;
#X connect 14 0 10 0;
#X connect 14 0 9 0;
#X connect 15 0 14 1;
#X connect 16 0 14 1;
#X connect 17 0 15 0;
#X connect 17 1 16 0;
#X connect 19 0 12 1;
#X connect 20 0 14 0;
#X coords 0 -1 1 1 167 121 1 22 23;
