#N canvas 781 11 747 927 10;
#N canvas 619 104 900 516 presets 0;
#X obj 472 106 bng 30 250 50 0 empty empty empty 17 7 0 10 -262144
-1 -1;
#X text 472 51 Store;
#X obj 471 76 nbx 3 20 0 1000 0 0 empty empty empty 0 -8 0 14 -262144
-1 -1 1 256 0;
#X obj 536 105 bng 30 250 50 0 empty empty empty 17 7 0 10 -262144
-1 -1;
#X obj 535 75 nbx 3 20 0 1000 0 0 empty empty empty 0 -8 0 14 -262144
-1 -1 0 256 0;
#X text 536 50 Read;
#X msg 411 280 write presets.txt;
#X obj 492 163 f;
#X obj 492 197 t b f;
#X msg 519 237 store \$1;
#X obj 564 354 outlet;
#X obj 613 238 loadbang;
#X msg 614 283 read presets.txt;
#X obj 754 195 f;
#X msg 748 282 recall \$1;
#X connect 0 0 7 0;
#X connect 2 0 7 1;
#X connect 3 0 13 0;
#X connect 4 0 13 1;
#X connect 6 0 10 0;
#X connect 7 0 8 0;
#X connect 8 0 6 0;
#X connect 8 1 9 0;
#X connect 9 0 10 0;
#X connect 11 0 12 0;
#X connect 12 0 10 0;
#X connect 13 0 14 0;
#X connect 14 0 10 0;
#X coords 0 -1 1 1 130 101 1 461 41;
#X restore 18 4 pd presets;
#X obj 18 112 preset_hub main %hidden% %node% 2 2 2 %preset% 0 0.313131
%node% 2 3 4 %preset% 0 1 %node% 2 3 13 %preset% 0 2 %node% 3 14 1
2 %preset% 0 0.232323 %node% 3 14 10 2 %preset% 0 1 %node% 3 14 14
2 %node% 3 3 20 2;
#X obj 601 198 knob 0 10000 2;
#X obj 348 236 lfo;
#N canvas 0 0 450 300 (subpatch) 0;
#X array osailoscope 100 float 3 black black;
#A 0 0 0 0 0 0 0 0 0 0 0 0 0 0 0 0 0 0 0 0 0 0 0 0 0 0 0 0 0 0 0 0
0 0 0 0 0 0 0 0 0 0 0 0 0 0 0 0 0 0 0 0 0 0 0 0 0 0 0 0 0 0 0 0 0 0
0 0 0 0 0 0 0 0 0 0 0 0 0 0 0 0 0 0 0 0 0 0 0 0 0 0 0 0 0 0 0 0 0 0
0;
#X coords 0 1 100 -1 269 167 1;
#X restore 43 742 graph;
#X obj 323 884 tabwrite~ osailoscope;
#X obj 335 863 metro 50;
#X obj 335 840 bng 15 250 50 0 empty empty empty 17 7 0 10 -262144
-1 -1;
#X obj 613 755 vcf~;
#X obj 669 754 reson~;
#X obj 638 711 bonk~;
#X obj 595 812 svf~;
#X obj 658 816 bob~;
#X obj 238 79 recorder;
#X obj 158 406 bob-filter;
#X obj 163 5 adc~ 1;
#X obj 162 645 output~;
#X obj 193 72 vu 15 120 empty empty -1 -8 0 10 -66577 -1 0 0;
#X obj 193 41 pvu~;
#X obj 578 711 fiddle~;
#X obj 607 668 fiddle~ 1024 1 20 3;
#X connect 0 0 1 0;
#X connect 3 0 14 1;
#X connect 6 0 5 0;
#X connect 7 0 6 0;
#X connect 13 0 14 0;
#X connect 14 0 16 0;
#X connect 14 0 16 1;
#X connect 15 0 18 0;
#X connect 15 0 14 0;
#X connect 15 0 13 0;
#X connect 18 0 17 0;
#X connect 18 1 17 1;
