#N canvas 236 39 1459 964 10;
#X declare -path vendors/essentiaRT~/Pd/utils;
#X obj 394 83 recorder;
#X obj 276 88 vu 15 120 empty empty -1 -8 0 10 -66577 -1 0 0;
#X obj 276 57 pvu~;
#X obj 156 914 output~;
#X obj 971 99 route list;
#X floatatom 974 183 5 0 0 0 - - -, f 5;
#X floatatom 1058 178 5 0 0 0 - - -, f 5;
#X obj 976 139 route f0.mean f0Confidence.mean loudness.mean loudness.var
;
#X floatatom 1149 174 5 0 0 0 - - -, f 5;
#X floatatom 1233 169 8 0 0 0 - - -, f 8;
#X obj 1027 270 envelope;
#X obj 559 220 lfo;
#X obj 371 454 bob-filter;
#X obj 1029 504 snapshot~;
#X floatatom 1025 559 5 0 0 0 - - -, f 5;
#X obj 1045 476 metro 50;
#X obj 1049 448 tgl 15 0 empty empty empty 17 7 0 10 -262144 -1 -1
1 1;
#X obj 851 434 *~, f 2;
#X obj 865 353 knob 0 10000 3;
#X obj 570 348 knob 0 10000 3;
#X obj 558 428 *~, f 2;
#X obj 386 306 *~, f 2;
#X obj 400 225 knob 0 3 2;
#X obj 29 394 declare -path vendors/essentiaRT~/Pd/utils;
#X text 29 416 Este declare no sirve;
#X obj 246 21 adc~ 1 2;
#X obj 870 73 essentiaRT~ 2;
#X obj 410 849 *~;
#X obj 114 628 *~;
#X obj 25 532 knob 0 3 2;
#X obj 481 597 lfo;
#X obj 465 816 *~, f 2;
#X obj 492 725 knob 0 100 3;
#X connect 0 0 21 0;
#X connect 2 0 1 0;
#X connect 2 1 1 1;
#X connect 4 0 7 0;
#X connect 5 0 10 0;
#X connect 7 0 5 0;
#X connect 7 1 6 0;
#X connect 7 2 8 0;
#X connect 7 3 9 0;
#X connect 10 0 13 0;
#X connect 10 0 17 0;
#X connect 11 0 20 0;
#X connect 12 0 27 1;
#X connect 13 0 14 0;
#X connect 15 0 13 0;
#X connect 16 0 15 0;
#X connect 17 0 12 1;
#X connect 18 0 17 1;
#X connect 19 0 20 1;
#X connect 20 0 12 1;
#X connect 21 0 12 0;
#X connect 22 0 21 1;
#X connect 25 0 2 0;
#X connect 25 0 0 0;
#X connect 25 0 12 0;
#X connect 25 0 26 0;
#X connect 25 0 28 1;
#X connect 25 1 2 0;
#X connect 25 1 26 0;
#X connect 25 1 28 1;
#X connect 26 2 4 0;
#X connect 27 0 3 0;
#X connect 28 0 3 0;
#X connect 29 0 28 0;
#X connect 30 0 31 0;
#X connect 31 0 27 0;
#X connect 32 0 31 1;
