#N canvas 177 65 398 615 10;
#X obj 11 573 outlet~;
#X text 240 142 Feedback;
#X obj 124 198 *~;
#X obj 24 336 +~;
#X obj 19 13 inlet~ signel;
#X obj 191 108 ../knob 0 1 2;
#X obj 109 16 inlet~ fb;
#X connect 2 0 3 1;
#X connect 3 0 0 0;
#X connect 4 0 3 0;
#X connect 5 0 2 1;
#X connect 6 0 2 0;
#X coords 0 -1 1 1 105 96 1 189 87;
