#N canvas 306 19 1252 967 10;
#X msg 330 621 absolute;
#X obj 330 596 loadbang;
#X obj 317 834 line;
#X obj 213 945 outlet~;
#X obj 315 648 average~ 256;
#X obj 266 874 *~, f 4;
#X obj 1138 495 ../knob 0 1 2;
#X text 1138 574 Amplitud;
#X text 427 292 Feedback;
#X obj 195 45 inlet~ input;
#X obj 327 44 inlet~ feedback;
#X msg 835 459 absolute;
#X obj 835 434 loadbang;
#X obj 836 488 average~ 256;
#X obj 316 799 spigot;
#X msg 790 566 0 1000;
#X obj 836 516 > 0.001;
#X obj 792 539 != 1;
#X text 887 518 Silence output when input is silence;
#X msg 315 752 \$1 10;
#X obj 334 333 peaking;
#X obj 327 434 peaking;
#X text 394 684 Amplitud deseada;
#X text 324 683 Amplitud medida;
#X obj 211 897 +~;
#X obj 393 782 tgl 15 0 empty empty empty 17 7 0 10 -262144 -1 -1 1
1;
#X obj 315 720 expr $f2/$f1;
#X obj 431 212 ../knob 0.0001 1 3;
#X obj 570 213 ../knob 20 15000 3;
#X floatatom 382 841 5 0 0 0 - - -, f 5;
#X obj 570 294 expr $f1*6;
#X connect 0 0 4 0;
#X connect 1 0 0 0;
#X connect 2 0 5 1;
#X connect 2 0 29 0;
#X connect 4 0 26 0;
#X connect 5 0 24 1;
#X connect 9 0 24 0;
#X connect 10 0 20 0;
#X connect 11 0 13 0;
#X connect 12 0 11 0;
#X connect 13 0 16 0;
#X connect 14 0 2 0;
#X connect 16 0 17 0;
#X connect 17 0 15 0;
#X connect 19 0 14 0;
#X connect 20 0 21 0;
#X connect 21 0 4 0;
#X connect 21 0 5 0;
#X connect 24 0 3 0;
#X connect 25 0 14 1;
#X connect 26 0 19 0;
#X connect 27 0 26 1;
#X connect 28 0 20 1;
#X connect 28 0 30 0;
#X connect 30 0 21 1;
#X coords 0 -1 1 1 394 333 2 323 203;
