#N canvas 770 304 797 653 10;
#X msg 221 256 absolute;
#X obj 221 231 loadbang;
#X text 130 315 Amplitud medida;
#X obj 224 482 line;
#X obj 49 561 outlet~;
#X obj 222 296 average~ 256;
#X obj 49 516 *~;
#X obj 222 368 expr $f2/$f1;
#X obj 328 212 ../knob 0 1 2;
#X text 328 291 Amplitud;
#X obj -39 252 *~;
#X obj 426 213 ../knob 0 2 2;
#X text 427 292 Feedback;
#X obj 41 59 inlet~ input;
#X obj -65 58 inlet~ feedback;
#X obj 47 285 +~;
#X msg 148 56 absolute;
#X obj 148 31 loadbang;
#X obj 149 85 average~ 256;
#X obj 223 447 spigot;
#X msg 113 202 0 1000;
#X obj 149 113 > 0.001;
#X obj 99 163 != 1;
#X text 200 115 Silence output when input is silence;
#X msg 222 400 \$1 10;
#X connect 0 0 5 0;
#X connect 1 0 0 0;
#X connect 3 0 6 1;
#X connect 5 0 7 0;
#X connect 6 0 4 0;
#X connect 7 0 24 0;
#X connect 8 0 7 1;
#X connect 10 0 15 0;
#X connect 11 0 10 1;
#X connect 13 0 15 1;
#X connect 13 0 18 0;
#X connect 14 0 10 0;
#X connect 15 0 5 0;
#X connect 15 0 6 0;
#X connect 16 0 18 0;
#X connect 17 0 16 0;
#X connect 18 0 21 0;
#X connect 19 0 3 0;
#X connect 20 0 3 0;
#X connect 21 0 22 0;
#X connect 21 0 19 1;
#X connect 22 0 20 0;
#X connect 24 0 19 0;
#X coords 0 -1 1 1 209 108 2 323 203;
