#N canvas 74 90 625 567 10;
#X obj 94 135 outlet~;
#X msg 147 -200 absolute;
#X obj 147 -225 loadbang;
#X obj 127 22 line;
#X obj 132 -173 average~ 256;
#X obj 96 86 *~, f 4;
#X obj 133 -15 spigot;
#X msg 132 -62 \$1 10;
#X text 264 -259 Amplitud deseada;
#X text 137 -124 Amplitud medida;
#X obj 132 -94 expr $f2/$f1;
#X obj 266 -370 ../knob 0.0001 1 3;
#X obj 23 -405 inlet~;
#X msg 318 1 0 1000;
#X obj 321 -90 > 0.001;
#X text 372 -88 Silence output when input is silence;
#X text 320 -335 Amplitud;
#X obj 321 -47 change;
#X obj 320 -23 select 0;
#X floatatom 323 -316 5 0 0 0 - - -, f 5;
#X obj 124 52 clip 0 5;
#X connect 1 0 4 0;
#X connect 2 0 1 0;
#X connect 3 0 20 0;
#X connect 4 0 10 0;
#X connect 4 0 14 0;
#X connect 5 0 0 0;
#X connect 6 0 3 0;
#X connect 7 0 6 0;
#X connect 10 0 7 0;
#X connect 11 0 10 1;
#X connect 12 0 4 0;
#X connect 12 0 5 0;
#X connect 13 0 3 0;
#X connect 14 0 6 1;
#X connect 14 0 17 0;
#X connect 17 0 18 0;
#X connect 18 0 13 0;
#X connect 20 0 5 1;
#X connect 20 0 19 0;
#X coords 0 -1 1 1 119 94 1 263 -387;
