#N canvas 509 139 733 495 10;
#X obj 194 439 outlet~;
#X obj 511 101 ../knob 20 20000 3;
#X text 567 152 freq;
#X obj 126 24 inlet~ signal;
#X text 703 141 BW;
#X text 780 140 Gain;
#X obj 202 396 biquad~;
#X obj 277 319 equalizer;
#X obj 306 271 t b f;
#X obj 388 274 t b f;
#X obj 227 25 inlet freq;
#X obj 325 26 inlet bw;
#X obj 411 25 inlet gain;
#X obj 415 206 +;
#X obj 325 198 +;
#X obj 226 123 +;
#X obj 249 93 t b f;
#X obj 338 165 t b f;
#X obj 436 180 t b f;
#X obj 625 101 ../knob 0 100 2;
#X obj 219 187 line 5;
#X obj 722 101 ../knob 0 24 1;
#X connect 1 0 16 0;
#X connect 3 0 6 0;
#X connect 6 0 0 0;
#X connect 7 0 6 0;
#X connect 8 0 7 0;
#X connect 8 1 7 1;
#X connect 9 0 7 0;
#X connect 9 1 7 2;
#X connect 10 0 15 0;
#X connect 11 0 14 0;
#X connect 12 0 13 0;
#X connect 13 0 9 0;
#X connect 14 0 8 0;
#X connect 15 0 20 0;
#X connect 16 0 15 0;
#X connect 16 1 15 1;
#X connect 17 0 14 0;
#X connect 17 1 14 1;
#X connect 18 0 13 0;
#X connect 18 1 13 1;
#X connect 19 0 17 0;
#X connect 20 0 7 0;
#X connect 21 0 18 0;
#X coords 0 -1 1 1 317 92 1 508 85;
